<svg xmlns="http://www.w3.org/2000/svg" viewBox="0 0 272.64 273.36"><defs><radialGradient id="radial-gradient" cx="140.35" cy="62.93" r="81.2" gradientTransform="rotate(-60 -248.71 284.039) scale(1 8)" gradientUnits="userSpaceOnUse"><stop offset="0" stop-color="#6b1511"/><stop offset="1" stop-color="#901914"/></radialGradient><radialGradient id="radial-gradient-2" cx="141.73" cy="222.1" r="81.81" gradientTransform="matrix(0 1 -8 0 1914 74.25)" gradientUnits="userSpaceOnUse"><stop offset="0" stop-color="#215025"/><stop offset="1" stop-color="#1e3e1d"/></radialGradient><style>.cls-4{fill:#fff}.cls-8{fill:#1d1d1b}</style></defs><g style="isolation:isolate"><g id="Layer_1" data-name="Layer 1"><g style="opacity:1"><path d="m86.58 15.5 99.92.46 70.48 71.12-.25 100.13-70.83 70.48-99.92-.46-70.48-71.12.25-100.13L86.58 15.5z" class="cls-4"/><path d="m86.58 15.5 99.92.46 70.48 71.12-.25 100.13-70.83 70.48-99.92-.46-70.48-71.12.25-100.13L86.58 15.5z" style="fill:none;stroke:#c1c1c1;stroke-miterlimit:10"/></g><path d="m182.71 25.05-92.39-.42-64.7 64.38h220.47l-63.38-63.96z" style="fill:url(#radial-gradient)"/><path d="m90.37 248.14 92.39.42 65.5-65.16H26.22l64.15 64.74z" style="fill:url(#radial-gradient-2)"/><path d="M24.76 183.4h.85l-.85-.86v.86zM247.65 89.01h-1.56l1.56 1.57v-1.57z" class="cls-4"/><path d="M39.1 114.88h10.22v13.51a13.78 13.78 0 0 1 4.19-3.09 11.81 11.81 0 0 1 4.87-.93 8.62 8.62 0 0 1 6.52 2.51q2.4 2.53 2.4 7.75v16.88H57.03v-14.63a5.3 5.3 0 0 0-.93-3.54 3.32 3.32 0 0 0-2.61-1 3.72 3.72 0 0 0-3 1.4q-1.16 1.4-1.15 5v12.75H39.1v-36.61ZM101.29 151.53h-9.55v-4.3a14 14 0 0 1-4.31 3.78 11.5 11.5 0 0 1-5.34 1.13 8.71 8.71 0 0 1-6.58-2.52q-2.4-2.51-2.4-7.74v-16.91h10.25v14.61a5.35 5.35 0 0 0 .93 3.55 3.3 3.3 0 0 0 2.61 1.05 3.73 3.73 0 0 0 3-1.4q1.17-1.4 1.17-5v-12.81h10.22v26.56ZM118.66 124.97h4.85v7.45h-4.87v19.11h-10.23v-19.11h-3.82v-7.45h3.82v-1.2a20.24 20.24 0 0 1 .35-3.58 7.15 7.15 0 0 1 1.32-3.19 6.81 6.81 0 0 1 2.71-2 13.28 13.28 0 0 1 5.11-.76 69.88 69.88 0 0 1 7.81.63l-1.13 6.15a19.18 19.18 0 0 0-3-.3 3.3 3.3 0 0 0-2 .46 2.55 2.55 0 0 0-.85 1.46 13.21 13.21 0 0 0-.07 2.33ZM127.51 114.88h10.22v6.93h-10.22v-6.93Zm0 10.1h10.22v26.56h-10.22v-26.57ZM144.36 114.88h10.24v36.66h-10.24v-36.66ZM173.25 114.88v10.1h5.62v7.45h-5.62v9.45a5 5 0 0 0 .33 2.25 1.87 1.87 0 0 0 1.76.85 11.24 11.24 0 0 0 3.16-.65l.75 7a33.42 33.42 0 0 1-7.08.83 12.36 12.36 0 0 1-5.62-1 6 6 0 0 1-2.67-3 17.34 17.34 0 0 1-.87-6.43v-9.34h-3.77v-7.45h3.77v-4.88ZM213.14 140.78h-20.49a6.58 6.58 0 0 0 1.33 3.65 4.85 4.85 0 0 0 3.87 1.73 5.82 5.82 0 0 0 2.86-.75 6.75 6.75 0 0 0 1.78-1.68l10.07.92a14.39 14.39 0 0 1-5.57 5.74q-3.27 1.74-9.37 1.74a19.25 19.25 0 0 1-8.34-1.49 12.22 12.22 0 0 1-5-4.73 14.22 14.22 0 0 1-2-7.62 13.35 13.35 0 0 1 4-10.08q4-3.85 11.06-3.85a19.75 19.75 0 0 1 9 1.73 11.67 11.67 0 0 1 5 5 18.23 18.23 0 0 1 1.73 8.53v1.15Zm-10.39-4.9a6.79 6.79 0 0 0-1.59-4.23 5 5 0 0 0-7.29.65 7 7 0 0 0-1.18 3.58h10.07ZM217.73 124.97h9.57v4.35a10.37 10.37 0 0 1 2.85-3.89 6 6 0 0 1 3.63-1.06 10.82 10.82 0 0 1 4.95 1.4l-3.22 7.26a8.05 8.05 0 0 0-2.86-.75 3.54 3.54 0 0 0-3.11 1.65q-1.58 2.33-1.58 8.7v8.9h-10.23v-26.56Z" class="cls-8"/></g></g></svg>
